# WaveFront *.obj file (generated by Autodesk ATF)

mtllib 1354d1f7-d864-4986-a452-886313d6abee.mtl

g Body1

v 16.589652 33.017514 -36.752739
v -113.410348 33.017514 -36.752739
v -113.410348 19.092514 -36.752739
v 16.589652 19.092514 -36.752739
v -113.410348 19.092514 -76.752739
v 16.589652 19.092514 -76.752739
v 16.589652 33.017514 -76.752739
v -113.410348 33.017514 -76.752739
v -113.410348 -19.831986 -76.752739
v 16.589652 -19.831986 -76.752739
v 16.589652 -19.831986 -36.752739
v -113.410348 -19.831986 -36.752739
v -113.410348 -31.982986 -36.752739
v 16.589652 -31.982986 -36.752739
v -113.410348 -31.982986 -76.752739
v 16.589652 -31.982986 -76.752739
v -113.410348 -61.982986 -76.752739
v 16.589652 -61.982986 -76.752739
v 16.589652 58.017014 -76.752739
v -113.410348 58.017014 -76.752739
v -113.410348 58.017014 -81.752739
v 16.589652 58.017014 -81.752739
v 16.589652 -61.982986 -81.752739
v -113.410348 -61.982986 -81.752739
vt 0.696250 6.500000 0.000000
vt -0.696250 6.500000 0.000000
vt 0.696250 -6.500000 0.000000
vt -0.696250 -6.500000 0.000000
vt 2.000000 6.500000 0.000000
vt -2.000000 6.500000 0.000000
vt 2.000000 -6.500000 0.000000
vt -2.000000 -6.500000 0.000000
vt -2.000000 -6.500000 0.000000
vt 2.000000 -6.500000 0.000000
vt -2.000000 6.500000 0.000000
vt 2.000000 6.500000 0.000000
vt 2.107550 6.500000 0.000000
vt -1.784900 6.500000 0.000000
vt 2.107550 -6.500000 0.000000
vt -1.784900 -6.500000 0.000000
vt 0.607550 6.500000 0.000000
vt -0.607550 6.500000 0.000000
vt 0.607550 -6.500000 0.000000
vt -0.607550 -6.500000 0.000000
vt 2.000000 6.500000 0.000000
vt -2.000000 6.500000 0.000000
vt 2.000000 -6.500000 0.000000
vt -2.000000 -6.500000 0.000000
vt -2.000000 -6.500000 0.000000
vt 2.000000 -6.500000 0.000000
vt -2.000000 6.500000 0.000000
vt 2.000000 6.500000 0.000000
vt -3.000000 6.500000 0.000000
vt -6.000000 6.500000 0.000000
vt -3.000000 -6.500000 0.000000
vt -6.000000 -6.500000 0.000000
vt 3.500050 -6.500000 0.000000
vt 6.000000 -6.500000 0.000000
vt 3.500050 6.500000 0.000000
vt 6.000000 6.500000 0.000000
vt -6.000000 -6.500000 0.000000
vt 6.000000 -6.500000 0.000000
vt -6.000000 6.500000 0.000000
vt 6.000000 6.500000 0.000000
vt -0.250000 -6.000000 0.000000
vt 0.250000 -6.000000 0.000000
vt -0.250000 -3.000000 0.000000
vt -0.250000 -1.784900 0.000000
vt -4.250000 -1.784900 0.000000
vt 0.250000 6.000000 0.000000
vt -0.250000 2.107550 0.000000
vt -0.250000 3.500050 0.000000
vt -4.250000 3.500050 0.000000
vt -0.250000 6.000000 0.000000
vt -4.250000 2.107550 0.000000
vt -4.250000 -3.000000 0.000000
vt 0.250000 6.500000 0.000000
vt -0.250000 6.500000 0.000000
vt 0.250000 -6.500000 0.000000
vt -0.250000 -6.500000 0.000000
vt 0.250000 6.000000 0.000000
vt -0.250000 6.000000 0.000000
vt 0.250000 3.500050 0.000000
vt 0.250000 2.107550 0.000000
vt 4.250000 2.107550 0.000000
vt 0.250000 -1.784900 0.000000
vt -0.250000 -6.000000 0.000000
vt 0.250000 -3.000000 0.000000
vt 0.250000 -6.000000 0.000000
vt 4.250000 -3.000000 0.000000
vt 4.250000 -1.784900 0.000000
vt 4.250000 3.500050 0.000000
vt -0.250000 -6.500000 0.000000
vt 0.250000 -6.500000 0.000000
vt -0.250000 6.500000 0.000000
vt 0.250000 6.500000 0.000000
vn 0.000000 -0.000000 0.100000
vn 0.000000 -0.000000 0.100000
vn 0.000000 -0.000000 0.100000
vn 0.000000 -0.000000 0.100000
vn 0.000000 -0.100000 -0.000000
vn 0.000000 -0.100000 -0.000000
vn 0.000000 -0.100000 -0.000000
vn 0.000000 -0.100000 -0.000000
vn -0.000000 0.100000 0.000000
vn -0.000000 0.100000 0.000000
vn -0.000000 0.100000 0.000000
vn -0.000000 0.100000 0.000000
vn 0.000000 -0.000000 0.100000
vn 0.000000 -0.000000 0.100000
vn 0.000000 -0.000000 0.100000
vn 0.000000 -0.000000 0.100000
vn 0.000000 -0.000000 0.100000
vn 0.000000 -0.000000 0.100000
vn 0.000000 -0.000000 0.100000
vn 0.000000 -0.000000 0.100000
vn 0.000000 -0.100000 -0.000000
vn 0.000000 -0.100000 -0.000000
vn 0.000000 -0.100000 -0.000000
vn 0.000000 -0.100000 -0.000000
vn -0.000000 0.100000 0.000000
vn -0.000000 0.100000 0.000000
vn -0.000000 0.100000 0.000000
vn -0.000000 0.100000 0.000000
vn 0.000000 -0.000000 0.100000
vn 0.000000 -0.000000 0.100000
vn 0.000000 -0.000000 0.100000
vn 0.000000 -0.000000 0.100000
vn 0.000000 -0.000000 0.100000
vn 0.000000 -0.000000 0.100000
vn 0.000000 -0.000000 0.100000
vn 0.000000 -0.000000 0.100000
vn -0.000000 0.000000 -0.100000
vn -0.000000 0.000000 -0.100000
vn -0.000000 0.000000 -0.100000
vn -0.000000 0.000000 -0.100000
vn 0.100000 0.000000 -0.000000
vn 0.100000 0.000000 -0.000000
vn 0.100000 0.000000 -0.000000
vn 0.100000 0.000000 -0.000000
vn 0.100000 0.000000 -0.000000
vn 0.100000 0.000000 -0.000000
vn 0.100000 0.000000 -0.000000
vn 0.100000 0.000000 -0.000000
vn 0.100000 0.000000 -0.000000
vn 0.100000 0.000000 -0.000000
vn 0.100000 0.000000 -0.000000
vn 0.100000 0.000000 -0.000000
vn 0.000000 -0.100000 -0.000000
vn 0.000000 -0.100000 -0.000000
vn 0.000000 -0.100000 -0.000000
vn 0.000000 -0.100000 -0.000000
vn -0.100000 -0.000000 0.000000
vn -0.100000 -0.000000 0.000000
vn -0.100000 -0.000000 0.000000
vn -0.100000 -0.000000 0.000000
vn -0.100000 -0.000000 0.000000
vn -0.100000 -0.000000 0.000000
vn -0.100000 -0.000000 0.000000
vn -0.100000 -0.000000 0.000000
vn -0.100000 -0.000000 0.000000
vn -0.100000 -0.000000 0.000000
vn -0.100000 -0.000000 0.000000
vn -0.100000 -0.000000 0.000000
vn -0.000000 0.100000 0.000000
vn -0.000000 0.100000 0.000000
vn -0.000000 0.100000 0.000000
vn -0.000000 0.100000 0.000000
usemtl Steel_-_Satin
f 2/1/1 3/2/2 1/3/3
f 1/3/3 3/2/2 4/4/4
f 3/5/5 5/6/6 4/7/7
f 4/7/7 5/6/6 6/8/8
f 1/9/9 7/10/10 2/11/11
f 2/11/11 7/10/10 8/12/12
f 5/13/13 9/14/14 6/15/15
f 6/15/15 9/14/14 10/16/16
f 12/17/17 13/18/18 11/19/19
f 11/19/19 13/18/18 14/20/20
f 13/21/21 15/22/22 14/23/23
f 14/23/23 15/22/22 16/24/24
f 11/25/25 10/26/26 12/27/27
f 12/27/27 10/26/26 9/28/28
f 15/29/29 17/30/30 16/31/31
f 16/31/31 17/30/30 18/32/32
f 7/33/33 19/34/34 8/35/35
f 8/35/35 19/34/34 20/36/36
f 22/37/37 23/38/38 21/39/39
f 21/39/39 23/38/38 24/40/40
f 18/41/41 23/42/42 16/43/43
f 16/43/43 23/42/42 10/44/44
f 16/43/43 10/44/44 11/45/45
f 23/42/42 22/46/46 10/44/44
f 10/44/44 22/46/46 6/47/47
f 6/47/47 22/46/46 7/48/48
f 6/47/47 7/48/48 1/49/49
f 22/46/46 19/50/50 7/48/48
f 1/49/49 4/51/51 6/47/47
f 11/45/45 14/52/52 16/43/43
f 17/53/53 24/54/54 18/55/55
f 18/55/55 24/54/54 23/56/56
f 20/57/57 21/58/58 8/59/59
f 8/59/59 21/58/58 5/60/60
f 8/59/59 5/60/60 3/61/61
f 5/60/60 21/58/58 9/62/62
f 9/62/62 21/58/58 24/63/63
f 9/62/62 24/63/63 15/64/64
f 15/64/64 24/63/63 17/65/65
f 15/64/64 13/66/66 9/62/62
f 9/62/62 13/66/66 12/67/67
f 3/61/61 2/68/68 8/59/59
f 19/69/69 22/70/70 20/71/71
f 20/71/71 22/70/70 21/72/72
# 24 vertices
# 72 texture params
# 72 normals
# 44 facets

# 1 groups
