# WaveFront *.obj file (generated by Autodesk ATF)

mtllib Shelf.mtl

g Body1

v 14.158965 -6.198299 -2.675274
v 14.158965 -6.198299 -3.175274
v 14.158965 -0.198299 -3.175274
v 14.158965 5.801701 -3.175274
v 14.158965 5.801701 -2.675274
v 14.158965 3.301751 -2.675274
v 14.158965 3.301751 1.324726
v 14.158965 1.909251 1.324726
v 14.158965 1.909251 -2.675274
v 14.158965 -1.983199 -2.675274
v 14.158965 -1.983199 1.324726
v 14.158965 -3.198299 1.324726
v 14.158965 -3.198299 -2.675274
v 4.492298 3.301751 1.324726
v -5.174368 3.301751 1.324726
v -14.841035 3.301751 1.324726
v -14.841035 1.909251 1.324726
v -5.174368 1.909251 1.324726
v 4.492298 1.909251 1.324726
v -14.841035 1.909251 -2.675274
v -5.174368 1.909251 -2.675274
v 4.492298 1.909251 -2.675274
v 4.492298 3.301751 -2.675274
v -5.174368 3.301751 -2.675274
v -14.841035 3.301751 -2.675274
v -14.841035 -1.983199 -2.675274
v -5.174368 -1.983199 -2.675274
v 4.492298 -1.983199 -2.675274
v 4.492298 -1.983199 1.324726
v -5.174368 -1.983199 1.324726
v -14.841035 -1.983199 1.324726
v -14.841035 -3.198299 1.324726
v -5.174368 -3.198299 1.324726
v 4.492298 -3.198299 1.324726
v -14.841035 -3.198299 -2.675274
v -5.174368 -3.198299 -2.675274
v 4.492298 -3.198299 -2.675274
v -14.841035 -6.198299 -2.675274
v -5.174368 -6.198299 -2.675274
v 4.492298 -6.198299 -2.675274
v 4.492298 5.801701 -2.675274
v -5.174368 5.801701 -2.675274
v -14.841035 5.801701 -2.675274
v -14.841035 5.801701 -3.175274
v -5.174368 5.801701 -3.175274
v 4.492298 5.801701 -3.175274
v 4.492298 -6.198299 -3.175274
v -5.174368 -6.198299 -3.175274
v -14.841035 -6.198299 -3.175274
v -14.841035 -0.198299 -3.175274
vt -0.250000 -6.000000 0.000000
vt 0.250000 -6.000000 0.000000
vt -0.250000 -3.000000 0.000000
vt 0.250000 0.000000 0.000000
vt -0.250000 -1.784900 0.000000
vt -0.250000 2.107550 0.000000
vt -0.250000 3.500050 0.000000
vt -4.250000 3.500050 0.000000
vt 0.250000 6.000000 0.000000
vt -0.250000 6.000000 0.000000
vt -4.250000 2.107550 0.000000
vt -4.250000 -1.784900 0.000000
vt -4.250000 -3.000000 0.000000
vt -0.696250 -22.500000 0.000000
vt 0.696250 -22.500000 0.000000
vt -0.696250 -12.833333 0.000000
vt 0.696250 -12.833333 0.000000
vt -0.696250 -3.166667 0.000000
vt 0.696250 -3.166667 0.000000
vt -0.696250 6.500000 0.000000
vt 0.696250 6.500000 0.000000
vt 2.000000 6.500000 0.000000
vt -2.000000 6.500000 0.000000
vt 2.000000 -3.166667 0.000000
vt -2.000000 -3.166667 0.000000
vt 2.000000 -12.833333 0.000000
vt -2.000000 -12.833333 0.000000
vt 2.000000 -22.500000 0.000000
vt -2.000000 -22.500000 0.000000
vt -2.000000 -22.500000 0.000000
vt 2.000000 -22.500000 0.000000
vt -2.000000 -12.833333 0.000000
vt 2.000000 -12.833333 0.000000
vt -2.000000 -3.166667 0.000000
vt 2.000000 -3.166667 0.000000
vt -2.000000 6.500000 0.000000
vt 2.000000 6.500000 0.000000
vt -1.784900 -22.500000 0.000000
vt 2.107550 -22.500000 0.000000
vt -1.784900 -12.833333 0.000000
vt 2.107550 -12.833333 0.000000
vt -1.784900 -3.166667 0.000000
vt 2.107550 -3.166667 0.000000
vt -1.784900 6.500000 0.000000
vt 2.107550 6.500000 0.000000
vt -0.607550 -22.500000 0.000000
vt 0.607550 -22.500000 0.000000
vt -0.607550 -12.833333 0.000000
vt 0.607550 -12.833333 0.000000
vt -0.607550 -3.166667 0.000000
vt 0.607550 -3.166667 0.000000
vt -0.607550 6.500000 0.000000
vt 0.607550 6.500000 0.000000
vt 2.000000 6.500000 0.000000
vt -2.000000 6.500000 0.000000
vt 2.000000 -3.166667 0.000000
vt -2.000000 -3.166667 0.000000
vt 2.000000 -12.833333 0.000000
vt -2.000000 -12.833333 0.000000
vt 2.000000 -22.500000 0.000000
vt -2.000000 -22.500000 0.000000
vt -2.000000 -22.500000 0.000000
vt 2.000000 -22.500000 0.000000
vt -2.000000 -12.833333 0.000000
vt 2.000000 -12.833333 0.000000
vt -2.000000 -3.166667 0.000000
vt 2.000000 -3.166667 0.000000
vt -2.000000 6.500000 0.000000
vt 2.000000 6.500000 0.000000
vt -6.000000 -22.500000 0.000000
vt -3.000000 -22.500000 0.000000
vt -6.000000 -12.833333 0.000000
vt -3.000000 -12.833333 0.000000
vt -6.000000 -3.166667 0.000000
vt -3.000000 -3.166667 0.000000
vt -6.000000 6.500000 0.000000
vt -3.000000 6.500000 0.000000
vt 6.000000 6.500000 0.000000
vt 3.500050 6.500000 0.000000
vt 6.000000 -3.166667 0.000000
vt 3.500050 -3.166667 0.000000
vt 6.000000 -12.833333 0.000000
vt 3.500050 -12.833333 0.000000
vt 6.000000 -22.500000 0.000000
vt 3.500050 -22.500000 0.000000
vt -6.000000 6.500000 0.000000
vt -6.000000 -3.166667 0.000000
vt 0.000000 6.500000 0.000000
vt 6.000000 -3.166667 0.000000
vt 6.000000 6.500000 0.000000
vt 6.000000 -12.833333 0.000000
vt -6.000000 -12.833333 0.000000
vt 0.000000 -22.500000 0.000000
vt -6.000000 -22.500000 0.000000
vt 6.000000 -22.500000 0.000000
vt 0.250000 6.500000 0.000000
vt -0.250000 6.500000 0.000000
vt 0.250000 -3.166667 0.000000
vt -0.250000 -3.166667 0.000000
vt 0.250000 -12.833333 0.000000
vt -0.250000 -12.833333 0.000000
vt 0.250000 -22.500000 0.000000
vt -0.250000 -22.500000 0.000000
vt 0.250000 6.000000 0.000000
vt -0.250000 6.000000 0.000000
vt 0.250000 3.500050 0.000000
vt -0.250000 -0.000000 0.000000
vt 0.250000 2.107550 0.000000
vt 0.250000 -1.784900 0.000000
vt 0.250000 -3.000000 0.000000
vt 4.250000 -3.000000 0.000000
vt -0.250000 -6.000000 0.000000
vt 0.250000 -6.000000 0.000000
vt 4.250000 -1.784900 0.000000
vt 4.250000 2.107550 0.000000
vt 4.250000 3.500050 0.000000
vt -0.250000 -22.500000 0.000000
vt 0.250000 -22.500000 0.000000
vt -0.250000 -12.833333 0.000000
vt 0.250000 -12.833333 0.000000
vt -0.250000 -3.166667 0.000000
vt 0.250000 -3.166667 0.000000
vt -0.250000 6.500000 0.000000
vt 0.250000 6.500000 0.000000
vn 1.000000 0.000000 -0.000000
vn 1.000000 0.000000 -0.000000
vn 1.000000 0.000000 -0.000000
vn 1.000000 0.000000 -0.000000
vn 1.000000 0.000000 -0.000000
vn 1.000000 0.000000 -0.000000
vn 1.000000 0.000000 -0.000000
vn 1.000000 0.000000 -0.000000
vn 1.000000 0.000000 -0.000000
vn 1.000000 0.000000 -0.000000
vn 1.000000 0.000000 -0.000000
vn 1.000000 0.000000 -0.000000
vn 1.000000 0.000000 -0.000000
vn 0.000000 -0.000000 1.000000
vn 0.000000 -0.000000 1.000000
vn 0.000000 -0.000000 1.000000
vn 0.000000 -0.000000 1.000000
vn 0.000000 -0.000000 1.000000
vn 0.000000 -0.000000 1.000000
vn 0.000000 -0.000000 1.000000
vn 0.000000 -0.000000 1.000000
vn 0.000000 -1.000000 -0.000000
vn 0.000000 -1.000000 -0.000000
vn 0.000000 -1.000000 -0.000000
vn 0.000000 -1.000000 -0.000000
vn 0.000000 -1.000000 -0.000000
vn 0.000000 -1.000000 -0.000000
vn 0.000000 -1.000000 -0.000000
vn 0.000000 -1.000000 -0.000000
vn -0.000000 1.000000 0.000000
vn -0.000000 1.000000 0.000000
vn -0.000000 1.000000 0.000000
vn -0.000000 1.000000 0.000000
vn -0.000000 1.000000 0.000000
vn -0.000000 1.000000 0.000000
vn -0.000000 1.000000 0.000000
vn -0.000000 1.000000 0.000000
vn 0.000000 -0.000000 1.000000
vn 0.000000 -0.000000 1.000000
vn 0.000000 -0.000000 1.000000
vn 0.000000 -0.000000 1.000000
vn 0.000000 -0.000000 1.000000
vn 0.000000 -0.000000 1.000000
vn 0.000000 -0.000000 1.000000
vn 0.000000 -0.000000 1.000000
vn 0.000000 -0.000000 1.000000
vn 0.000000 -0.000000 1.000000
vn 0.000000 -0.000000 1.000000
vn 0.000000 -0.000000 1.000000
vn 0.000000 -0.000000 1.000000
vn 0.000000 -0.000000 1.000000
vn 0.000000 -0.000000 1.000000
vn 0.000000 -0.000000 1.000000
vn 0.000000 -1.000000 -0.000000
vn 0.000000 -1.000000 -0.000000
vn 0.000000 -1.000000 -0.000000
vn 0.000000 -1.000000 -0.000000
vn 0.000000 -1.000000 -0.000000
vn 0.000000 -1.000000 -0.000000
vn 0.000000 -1.000000 -0.000000
vn 0.000000 -1.000000 -0.000000
vn -0.000000 1.000000 0.000000
vn -0.000000 1.000000 0.000000
vn -0.000000 1.000000 0.000000
vn -0.000000 1.000000 0.000000
vn -0.000000 1.000000 0.000000
vn -0.000000 1.000000 0.000000
vn -0.000000 1.000000 0.000000
vn -0.000000 1.000000 0.000000
vn 0.000000 -0.000000 1.000000
vn 0.000000 -0.000000 1.000000
vn 0.000000 -0.000000 1.000000
vn 0.000000 -0.000000 1.000000
vn 0.000000 -0.000000 1.000000
vn 0.000000 -0.000000 1.000000
vn 0.000000 -0.000000 1.000000
vn 0.000000 -0.000000 1.000000
vn 0.000000 -0.000000 1.000000
vn 0.000000 -0.000000 1.000000
vn 0.000000 -0.000000 1.000000
vn 0.000000 -0.000000 1.000000
vn 0.000000 -0.000000 1.000000
vn 0.000000 -0.000000 1.000000
vn 0.000000 -0.000000 1.000000
vn 0.000000 -0.000000 1.000000
vn -0.000000 0.000000 -1.000000
vn -0.000000 0.000000 -1.000000
vn -0.000000 0.000000 -1.000000
vn -0.000000 0.000000 -1.000000
vn -0.000000 0.000000 -1.000000
vn -0.000000 0.000000 -1.000000
vn -0.000000 0.000000 -1.000000
vn -0.000000 0.000000 -1.000000
vn -0.000000 0.000000 -1.000000
vn -0.000000 0.000000 -1.000000
vn 0.000000 -1.000000 -0.000000
vn 0.000000 -1.000000 -0.000000
vn 0.000000 -1.000000 -0.000000
vn 0.000000 -1.000000 -0.000000
vn 0.000000 -1.000000 -0.000000
vn 0.000000 -1.000000 -0.000000
vn 0.000000 -1.000000 -0.000000
vn 0.000000 -1.000000 -0.000000
vn -1.000000 -0.000000 0.000000
vn -1.000000 -0.000000 0.000000
vn -1.000000 -0.000000 0.000000
vn -1.000000 -0.000000 0.000000
vn -1.000000 -0.000000 0.000000
vn -1.000000 -0.000000 0.000000
vn -1.000000 -0.000000 0.000000
vn -1.000000 -0.000000 0.000000
vn -1.000000 -0.000000 0.000000
vn -1.000000 -0.000000 0.000000
vn -1.000000 -0.000000 0.000000
vn -1.000000 -0.000000 0.000000
vn -1.000000 -0.000000 0.000000
vn -0.000000 1.000000 0.000000
vn -0.000000 1.000000 0.000000
vn -0.000000 1.000000 0.000000
vn -0.000000 1.000000 0.000000
vn -0.000000 1.000000 0.000000
vn -0.000000 1.000000 0.000000
vn -0.000000 1.000000 0.000000
vn -0.000000 1.000000 0.000000
usemtl Steel_-_Satin
f 1/1/1 2/2/2 13/3/3
f 13/3/3 2/2/2 3/4/4
f 13/3/3 3/4/4 10/5/5
f 10/5/5 3/4/4 9/6/6
f 9/6/6 3/4/4 6/7/7
f 9/6/6 6/7/7 7/8/8
f 3/4/4 4/9/9 6/7/7
f 6/7/7 4/9/9 5/10/10
f 7/8/8 8/11/11 9/6/6
f 10/5/5 11/12/12 13/3/3
f 13/3/3 11/12/12 12/13/13
f 8/14/14 7/15/15 19/16/16
f 19/16/16 7/15/15 14/17/17
f 19/16/16 14/17/17 18/18/18
f 18/18/18 14/17/17 15/19/19
f 18/18/18 15/19/19 17/20/20
f 17/20/20 15/19/19 16/21/21
f 17/22/22 20/23/23 18/24/24
f 18/24/24 20/23/23 21/25/25
f 18/24/24 21/25/25 19/26/26
f 19/26/26 21/25/25 22/27/27
f 19/26/26 22/27/27 8/28/28
f 8/28/28 22/27/27 9/29/29
f 7/30/30 6/31/31 14/32/32
f 14/32/32 6/31/31 23/33/33
f 14/32/32 23/33/33 15/34/34
f 15/34/34 23/33/33 24/35/35
f 15/34/34 24/35/35 16/36/36
f 16/36/36 24/35/35 25/37/37
f 10/38/38 9/39/39 28/40/40
f 28/40/40 9/39/39 22/41/41
f 28/40/40 22/41/41 27/42/42
f 27/42/42 22/41/41 21/43/43
f 27/42/42 21/43/43 26/44/44
f 26/44/44 21/43/43 20/45/45
f 12/46/46 11/47/47 34/48/48
f 34/48/48 11/47/47 29/49/49
f 34/48/48 29/49/49 33/50/50
f 33/50/50 29/49/49 30/51/51
f 33/50/50 30/51/51 32/52/52
f 32/52/52 30/51/51 31/53/53
f 32/54/54 35/55/55 33/56/56
f 33/56/56 35/55/55 36/57/57
f 33/56/56 36/57/57 34/58/58
f 34/58/58 36/57/57 37/59/59
f 34/58/58 37/59/59 12/60/60
f 12/60/60 37/59/59 13/61/61
f 11/62/62 10/63/63 29/64/64
f 29/64/64 10/63/63 28/65/65
f 29/64/64 28/65/65 30/66/66
f 30/66/66 28/65/65 27/67/67
f 30/66/66 27/67/67 31/68/68
f 31/68/68 27/67/67 26/69/69
f 1/70/70 13/71/71 40/72/72
f 40/72/72 13/71/71 37/73/73
f 40/72/72 37/73/73 39/74/74
f 39/74/74 37/73/73 36/75/75
f 39/74/74 36/75/75 38/76/76
f 38/76/76 36/75/75 35/77/77
f 43/78/78 25/79/79 42/80/80
f 42/80/80 25/79/79 24/81/81
f 42/80/80 24/81/81 41/82/82
f 41/82/82 24/81/81 23/83/83
f 41/82/82 23/83/83 5/84/84
f 5/84/84 23/83/83 6/85/85
f 44/86/86 45/87/87 50/88/88
f 50/88/88 45/87/87 48/89/89
f 50/88/88 48/89/89 49/90/90
f 48/89/89 45/87/87 47/91/91
f 47/91/91 45/87/87 46/92/92
f 47/91/91 46/92/92 3/93/93
f 3/93/93 46/92/92 4/94/94
f 3/93/93 2/95/95 47/91/91
f 38/96/96 49/97/97 39/98/98
f 39/98/98 49/97/97 48/99/99
f 39/98/98 48/99/99 40/100/100
f 40/100/100 48/99/99 47/101/101
f 40/100/100 47/101/101 1/102/102
f 1/102/102 47/101/101 2/103/103
f 43/104/104 44/105/105 25/106/106
f 25/106/106 44/105/105 50/107/107
f 25/106/106 50/107/107 20/108/108
f 20/108/108 50/107/107 26/109/109
f 26/109/109 50/107/107 35/110/110
f 26/109/109 35/110/110 32/111/111
f 50/107/107 49/112/112 35/110/110
f 35/110/110 49/112/112 38/113/113
f 32/111/111 31/114/114 26/109/109
f 20/108/108 17/115/115 25/106/106
f 25/106/106 17/115/115 16/116/116
f 5/117/117 4/118/118 41/119/119
f 41/119/119 4/118/118 46/120/120
f 41/119/119 46/120/120 42/121/121
f 42/121/121 46/120/120 45/122/122
f 42/121/121 45/122/122 43/123/123
f 43/123/123 45/122/122 44/124/124
# 50 vertices
# 124 texture params
# 124 normals
# 96 facets

# 1 groups
